HIERARCHY
ROOT Hips
{
    OFFSET 0.000000 0.000000 0.000000
    CHANNELS 6 Xposition Yposition Zposition Zrotation Xrotation Yrotation
        JOINT Chest
        {
            OFFSET -0.000000 31.571314 -0.000000
            CHANNELS 3 Zrotation Xrotation Yrotation
            JOINT Neck
            {
                OFFSET -0.000000 23.394884 0.000000
                CHANNELS 3 Zrotation Xrotation Yrotation
                JOINT Head
                {
                    OFFSET -0.000000 10.877778 0.000000
                    CHANNELS 3 Zrotation Xrotation Yrotation
                    End Site
                    {
                        OFFSET -0.000000 16.811111 0.000000
                    }
                }
            }
            JOINT LeftCollar
            {
                OFFSET -0.000000 23.394884 0.000000
                CHANNELS 3 Zrotation Xrotation Yrotation
                JOINT LeftShoulder
                {
                    OFFSET 21.500002 -0.000000 0.000000
                    CHANNELS 3 Zrotation Xrotation Yrotation
                    JOINT LeftElbow
                    {
                        OFFSET 24.792776 0.000000 0.000000
                        CHANNELS 3 Zrotation Xrotation Yrotation
                        JOINT LeftWrist
                        {
                            OFFSET 26.439411 0.000000 0.000000
                            CHANNELS 3 Zrotation Xrotation Yrotation
                            End Site
                            {
                                OFFSET 0.000000 -14.833334 0.000000
                            }
                        }
                    }
                }
            }
            JOINT RightCollar
            {
                OFFSET -0.000000 23.394884 0.000000
                CHANNELS 3 Zrotation Xrotation Yrotation
                JOINT RightShoulder
                {
                    OFFSET -21.500002 0.000000 0.000000
                    CHANNELS 3 Zrotation Xrotation Yrotation
                    JOINT RightElbow
                    {
                        OFFSET -24.792776 0.000000 0.000000
                        CHANNELS 3 Zrotation Xrotation Yrotation
                        JOINT RightWrist
                        {
                            OFFSET -26.439411 0.000000 0.000000
                            CHANNELS 3 Zrotation Xrotation Yrotation
                            End Site
                            {
                                OFFSET -0.000000 -14.833334 0.000000
                            }
                        }
                    }
                }
            }
        }
    JOINT LeftHip
    {
        OFFSET 11.866667 0.000000 0.000000
        CHANNELS 3 Zrotation Xrotation Yrotation
        JOINT LeftKnee
        {
            OFFSET -0.000000 -38.580112 0.000000
            CHANNELS 3 Zrotation Xrotation Yrotation
            JOINT LeftAnkle
            {
                OFFSET -0.000000 -41.767254 0.000000
                CHANNELS 3 Zrotation Xrotation Yrotation
                End Site
                {
                    OFFSET -0.000000 -4.944444 16.811111
                }
            }
        }
    }
    JOINT RightHip
    {
        OFFSET -11.866667 0.000000 0.000000
        CHANNELS 3 Zrotation Xrotation Yrotation
        JOINT RightKnee
        {
            OFFSET -0.000000 -38.580112 0.000000
            CHANNELS 3 Zrotation Xrotation Yrotation
            JOINT RightAnkle
            {
                OFFSET -0.000000 -41.767254 0.000000
                CHANNELS 3 Zrotation Xrotation Yrotation
                End Site
                {
                    OFFSET -0.000000 -4.944444 16.811111
                }
            }
        }
    }
}
MOTION
Frames:    14
Frame Time:    0.010000
74.190613    75.797867    -42.146980    -18.604216    7.760525    -114.585785    10.163622    11.698404    -11.863443    6.228758    7.174300    20.325943    -9.178927    -31.042610    18.161461    2.058990    -0.173808    -10.987135    11.356844    -4.125991    -36.415169    21.272573    -1.292210    -6.892242    61.963848    53.216156    113.892639    4.160512    -0.027401    -0.343541    3.037508    41.013412    11.401928    -31.570583    -8.305660    27.375254    -86.949638    1.650258    -53.134071    16.668987    -9.798887    11.030576    -44.700855    60.530739    37.118393    6.621036    -25.704830    15.538731    -9.412116    -3.487973    2.500698    -20.886490    72.097954    22.937277    2.277481    -34.585346    -1.762793    
73.800102    75.616669    -41.719265    -18.509924    7.702158    -114.524971    10.214875    10.954275    -12.478163    6.590158    8.000081    20.336502    -9.341784    -31.093325    18.197241    1.704448    -0.157353    -11.287622    12.340602    -3.078961    -36.795990    21.215181    -1.257175    -6.741394    59.412663    54.453293    115.432159    4.016576    0.017413    -0.117807    2.490160    40.145908    10.756636    -32.398365    -8.523648    28.171776    -86.955086    4.311689    -54.854893    16.480715    -9.968207    10.966973    -45.870087    60.667492    38.091713    6.635769    -25.960819    15.503886    -9.763507    -3.555308    2.711579    -21.066202    72.245781    22.987076    14.527854    -33.510475    2.434306    
73.393196    75.490120    -41.307331    -18.508396    7.693927    -114.337807    10.488123    10.694096    -13.080730    6.854259    8.159031    20.361002    -9.640223    -31.095036    18.166538    1.521308    -0.160181    -11.892838    12.571013    -3.098747    -36.412193    20.766813    -1.255551    -7.084114    61.247944    52.499660    115.273285    3.655026    -0.021239    -0.171278    1.597870    38.701855    10.244183    -33.211155    -8.636836    27.551353    -85.191109    -2.001393    -53.637482    16.131577    -9.975516    10.708138    -46.686760    60.841770    38.680744    7.318209    -25.953331    15.666662    -10.100712    -3.351704    2.806608    -21.170368    72.187263    23.017593    3.859452    -34.547455    -1.165108    
72.896324    75.390175    -40.959381    -18.694429    7.825814    -114.071831    10.900000    10.795845    -13.694147    7.370417    7.738126    20.454473    -10.032027    -30.276409    18.243593    1.531492    -0.142110    -11.916500    12.638149    -2.826302    -36.892864    21.024666    -1.332603    -7.273226    59.864201    53.617088    115.763969    2.674017    -0.045797    -0.962528    -0.235518    39.848564    12.267168    -34.638939    -8.649514    25.395906    -85.059814    -3.546755    -56.113800    15.973841    -9.750062    10.865316    -47.027187    61.188751    39.160069    7.490612    -26.186331    15.407721    -10.334605    -2.642986    3.286512    -19.957651    71.919136    21.430910    15.825891    -33.398380    3.054573    
72.599876    75.309715    -40.526821    -18.362272    7.740084    -113.886093    11.267585    10.189528    -14.343279    7.517544    7.819782    20.550335    -10.004218    -30.200294    18.366497    1.605576    -0.178043    -12.029934    12.602586    -2.601169    -37.086411    21.403608    -1.409850    -7.477579    57.053391    57.223484    114.614311    2.681022    -0.011597    -0.101082    0.526081    35.611351    9.036906    -34.478569    -8.727822    28.058857    -84.530548    -5.066813    -54.596943    15.844748    -10.131191    10.575321    -48.227551    61.055836    40.264542    7.928025    -26.188442    15.275893    -10.524416    -2.828792    3.221226    -20.324442    71.729164    21.007626    14.132641    -33.296288    3.081475    
72.187073    75.311874    -40.156727    -18.406710    7.831637    -113.755646    11.569464    9.941280    -14.918083    8.144042    8.289971    20.727783    -10.714231    -30.121494    18.447004    1.639124    -0.156599    -12.076278    12.962853    -2.104145    -37.104618    21.637089    -1.420468    -7.445650    52.209103    58.622044    118.491631    2.579021    0.007942    0.373238    0.161584    33.419975    7.556836    -34.861244    -9.142643    29.098036    -83.577736    -6.195046    -53.810520    15.684808    -9.901351    10.674488    -48.466980    61.100273    40.523788    8.184281    -26.206062    15.058377    -10.661484    -2.399012    3.356338    -20.667747    71.428474    22.172781    14.101446    -33.320286    2.094120    
71.886093    75.307968    -39.727413    -18.074053    7.779770    -113.731277    11.840793    9.344538    -15.392872    8.283364    8.454376    20.992376    -10.520614    -30.007769    18.799252    1.591712    -0.175040    -12.143865    13.862756    -1.520823    -36.886452    21.320614    -1.340462    -7.010270    58.926094    54.239914    115.483917    2.177450    0.033440    0.334136    -0.450537    32.437019    7.096244    -35.719379    -9.661538    29.343079    -82.336502    -7.003623    -53.769848    15.575885    -10.225377    10.954073    -48.931755    61.414238    40.749138    7.856196    -26.290873    14.765750    -10.754966    -2.558854    3.543724    -20.744488    71.213104    22.004852    14.544660    -33.110363    2.152823    
71.539917    75.355003    -39.322979    -17.926765    7.816246    -113.720879    12.238923    8.957706    -15.803069    8.451179    8.208588    21.147688    -10.180680    -29.399942    19.090441    1.798175    -0.191792    -12.657584    13.698226    -1.793670    -35.907486    21.058144    -1.356017    -7.450325    59.776814    55.842632    111.947067    1.940428    0.003322    0.700946    -1.160097    30.240503    6.384461    -35.704803    -9.771655    30.005836    -82.368217    -6.288257    -53.734749    15.568048    -10.192393    11.177525    -49.394936    61.361137    40.551914    8.814454    -25.880873    15.254168    -10.842093    -2.419140    4.189988    -19.791973    70.963249    20.849243    15.135154    -32.555439    2.234315    
71.206566    75.444252    -38.878910    -17.749331    7.777872    -113.790543    12.442410    8.369215    -16.254356    8.800591    8.515112    21.403290    -10.309319    -29.179232    19.392467    2.072672    -0.212754    -12.602457    14.026445    -1.242676    -35.564617    21.196743    -1.408641    -7.410589    60.640808    56.239838    110.627632    1.849563    0.036293    0.934175    -1.877119    28.600389    5.402481    -36.169285    -10.141745    30.644110    -81.200180    -8.145136    -53.096512    15.358286    -10.084537    11.426757    -49.374439    61.173882    40.583546    9.079690    -25.638378    15.044125    -11.023142    -2.424693    4.496632    -19.740971    70.572403    20.061634    15.970848    -31.831757    2.933228    
70.863617    75.565338    -38.395866    -17.529209    7.659458    -113.902740    12.798357    7.847348    -16.601133    8.686695    9.055261    21.733927    -10.176943    -29.593937    19.752611    2.213877    -0.273047    -12.644367    14.484100    -0.712724    -34.823349    21.273636    -1.418726    -7.537646    62.555153    56.283073    108.831238    0.970646    -0.009020    0.505852    -2.113635    28.944824    5.111748    -37.208378    -11.211181    33.492851    -83.501076    6.548381    -58.978504    15.147002    -9.979375    11.271461    -49.948830    60.519024    40.976692    9.214977    -25.308363    14.825224    -11.312507    -2.575057    4.779275    -19.799740    70.341621    21.088045    15.787220    -31.463078    1.671971    
70.538475    75.727356    -37.920605    -17.275238    7.572105    -114.046486    13.237508    7.367889    -16.987507    9.198211    8.409236    22.076952    -10.240704    -28.165218    20.210014    2.535724    -0.304230    -12.480138    14.309691    -0.818370    -34.103336    21.363148    -1.430647    -7.638306    63.599297    57.138020    107.453987    0.819942    0.017209    0.824680    -3.239448    25.957411    4.159106    -36.627331    -11.517916    35.457680    -82.668213    6.801445    -57.884510    14.932181    -9.969802    11.588534    -49.914574    60.237095    40.837543    9.554992    -24.884319    14.869766    -11.543766    -2.749643    5.127607    -19.561977    70.030151    20.717777    15.996480    -30.765429    1.534829    
70.213341    75.931892    -37.409733    -17.008316    7.443326    -114.255898    13.401985    6.678790    -17.268898    9.807317    8.637250    22.426748    -10.515527    -27.544474    20.619007    2.790246    -0.331796    -12.430208    14.847130    -0.041165    -33.210270    21.747622    -1.432074    -7.272513    63.462944    57.970531    106.849388    0.614185    -0.013863    0.897298    -4.096782    24.508282    3.395131    -36.762867    -12.143209    36.645046    -81.694954    6.787834    -57.531151    14.689036    -9.947922    11.938560    -49.785889    59.916889    40.716652    9.542378    -24.446869    14.427864    -11.829553    -3.015520    5.227221    -20.135260    69.635475    21.456610    16.214075    -29.918970    1.195722    
69.864876    76.183083    -36.913120    -16.769083    7.354849    -114.430984    13.917655    6.002947    -17.864149    9.404220    8.028608    22.898640    -9.507607    -26.465649    21.347944    2.727830    -0.283149    -12.121713    15.484799    0.201441    -32.093616    21.784365    -1.392138    -7.161676    64.116615    58.370041    106.196144    0.147633    0.015933    0.200419    -5.579432    24.481133    3.822536    -37.590321    -12.818309    36.657333    -80.834206    5.553639    -58.337975    14.301633    -9.768918    12.175159    -49.103176    59.508606    39.952129    9.832572    -23.964252    14.171855    -12.070331    -3.203337    5.515127    -20.332363    69.242210    21.559864    16.502062    -28.755842    1.169712    
69.543365    76.469902    -36.416939    -16.373426    7.210772    -114.615280    14.107998    5.169053    -18.117594    9.586661    9.052279    23.361370    -9.660193    -27.027290    21.832949    3.224899    -0.352869    -11.675797    15.488132    0.777097    -31.334734    22.247087    -1.376628    -6.727197    63.566578    58.116074    106.780487    -0.073177    -0.013148    0.372310    -6.335928    23.119806    2.912826    -37.858318    -13.360765    38.393444    -79.977669    7.409649    -59.272488    13.975972    -9.846112    12.650316    -48.373047    59.369038    39.032684    9.766327    -23.508430    13.872154    -12.228164    -3.581301    5.501561    -20.558205    68.715721    21.076763    16.796644    -27.485767    1.233164    
